<svg width="200" height="40" viewBox="0 0 200 40" fill="none" xmlns="http://www.w3.org/2000/svg">
<path d="M1.55562 17.477C2.5927 15.2235 4.01568 13.5334 5.82454 12.4066C7.6334 11.2799 9.70757 10.7042 12.047 10.7042C16.1712 10.7042 19.3428 12.2964 21.5375 15.4685L22.237 14.8561C21.5737 13.8396 21.1516 12.823 20.9587 11.8187C20.7778 10.8022 20.6813 9.65095 20.6813 8.36497V0H28.8212V39.2039H21.0311V35.0888H20.1869C19.9819 36.3748 19.2101 37.5015 17.8354 38.4568C16.4727 39.4244 14.7603 39.902 12.6862 39.902C4.23274 39.902 0 35.1378 0 25.5971C0.0120591 22.4372 0.5306 19.7183 1.55562 17.477ZM10.1779 31.9535C11.3958 33.5456 13.0118 34.3417 15.0497 34.3417C16.8827 34.3417 18.2936 33.6926 19.2945 32.3944C20.2954 31.0961 20.7899 29.406 20.7899 27.3484V24.0049C20.7899 21.5677 20.2954 19.6816 19.2945 18.3466C18.2936 17.0116 16.943 16.338 15.2547 16.338C13.2891 16.338 11.6491 17.1219 10.3346 18.665C9.0202 20.2205 8.35695 22.4495 8.35695 25.3644C8.34489 28.169 8.9599 30.3613 10.1779 31.9535ZM32.5475 17.5995C33.6328 15.4072 35.2005 13.6926 37.2626 12.4556C39.3247 11.2186 41.7727 10.6062 44.6066 10.6062C49.0323 10.6062 52.3364 11.9167 54.5191 14.5377C56.7018 17.1586 57.7872 20.6491 57.7872 25.0092V27.1892H39.1076C39.3126 29.6632 39.8673 31.4636 40.808 32.6148C41.7365 33.7661 43.0509 34.3417 44.7513 34.3417C46.2104 34.3417 47.3078 34.0478 48.0193 33.4599C48.7308 32.872 49.2373 32.0882 49.5387 31.0961H57.5339C57.136 33.8396 55.7854 35.9951 53.4941 37.5628C51.2029 39.1304 48.2002 39.9265 44.5101 39.9265C40.1447 39.9265 36.7923 38.6038 34.4528 35.9706C32.1013 33.3374 30.9316 29.7489 30.9316 25.2174C30.9195 22.327 31.4622 19.7918 32.5475 17.5995ZM49.4905 22.4127V22.0576C49.3579 20.0245 48.8875 18.4691 48.0916 17.3913C47.2957 16.3135 46.126 15.7746 44.5945 15.7746C41.3989 15.7746 39.5659 17.9914 39.1076 22.4127H49.4905ZM65.8788 31.0839C65.9391 32.1617 66.3491 33.0312 67.0727 33.6926C67.8083 34.354 68.9418 34.6846 70.4733 34.6846C71.7998 34.6846 72.861 34.4152 73.6449 33.8763C74.4287 33.3374 74.8146 32.5781 74.8146 31.5983C74.8146 30.7165 74.5855 30.0674 74.1152 29.6509C73.6449 29.2345 72.8007 28.9284 71.5707 28.7691L67.1209 28.1078C61.7667 27.3607 59.0775 24.5928 59.0775 19.7918C59.0775 18.1017 59.4875 16.5585 60.3316 15.1745C61.1637 13.7906 62.442 12.6761 64.1544 11.8555C65.8667 11.0227 67.9771 10.6185 70.4733 10.6185C73.9343 10.6185 76.6114 11.3901 78.4926 12.921C80.3738 14.4642 81.3989 16.4972 81.5677 19.0325H74.3805C74.3081 18.1139 73.9343 17.3668 73.259 16.7789C72.5716 16.1911 71.631 15.8971 70.4371 15.8971C69.2071 15.8971 68.2544 16.1666 67.5912 16.7054C66.9279 17.2443 66.5903 17.9424 66.5903 18.7875C66.5903 19.5958 66.8315 20.2449 67.3138 20.7104C67.7962 21.188 68.6162 21.4942 69.7859 21.6289L74.4287 22.2413C79.7226 22.9149 82.3636 25.6583 82.3636 30.4593C82.3636 33.4966 81.2783 35.8481 79.0956 37.5138C76.9129 39.1672 74.0308 40 70.4371 40C66.5421 40 63.6117 39.1917 61.6461 37.5628C59.6804 35.9461 58.5951 33.7906 58.4022 31.1206H65.8788V31.0839ZM84.3533 0H92.3967V16.9871C92.3967 18.2731 92.3003 19.4244 92.1194 20.4409C91.9385 21.4574 91.5164 22.474 90.8411 23.4783L91.5406 24.0906L94.5312 20.3429L101.767 11.2676H110.353L101.164 22.2168L110.799 39.2039H102.008L95.713 27.7893L92.3726 31.9535V39.2039H84.3292V0H84.3533ZM111.969 0H120.109V8.36497C120.109 9.65095 120.012 10.8022 119.831 11.8187C119.65 12.8353 119.228 13.8518 118.553 14.8561L119.252 15.4685C121.712 12.2964 124.872 10.7042 128.743 10.7042C132.336 10.7042 135.134 11.8677 137.136 14.207C139.138 16.5462 140.127 20.196 140.127 25.1562C140.127 29.9204 139.09 33.5701 137.003 36.1053C134.917 38.6405 131.951 39.9143 128.092 39.9143C126.03 39.9143 124.317 39.4366 122.942 38.4691C121.58 37.5015 120.796 36.387 120.591 35.101H119.747V39.2039H111.957L111.969 0ZM121.447 32.2596C122.412 33.6436 123.811 34.3417 125.644 34.3417C127.513 34.3417 128.996 33.5579 130.118 31.978C131.227 30.4103 131.794 28.169 131.794 25.2541C131.794 22.3515 131.251 20.1347 130.166 18.616C129.08 17.0974 127.561 16.338 125.595 16.338C123.931 16.338 122.581 16.9994 121.556 18.3099C120.519 19.6326 120.012 21.4329 120.012 23.7355V26.7238C120 29.0263 120.482 30.8634 121.447 32.2596ZM142.273 11.2554H150.413V39.2039H142.273V11.2554ZM154.308 11.2554H162.002C162.002 12.5413 161.905 13.6926 161.724 14.7091C161.544 15.7257 161.121 16.7422 160.446 17.7465L161.146 18.3588L162.291 16.7912C163.292 15.444 164.16 14.3784 164.884 13.5946C165.62 12.823 166.536 12.1617 167.658 11.6228C168.767 11.0839 170.118 10.8145 171.673 10.8145V18.3099H170.226C168.224 18.3099 166.717 18.4078 165.704 18.616C164.691 18.8242 163.895 19.3141 163.304 20.1102C162.725 20.9063 162.436 22.1678 162.436 23.8824V39.2039H154.296L154.308 11.2554ZM171.191 25.6093C171.191 22.4372 171.709 19.7183 172.734 17.4648C173.771 15.2113 175.194 13.5211 177.003 12.3944C178.812 11.2676 180.886 10.692 183.226 10.692C187.35 10.692 190.522 12.2841 192.716 15.4562L193.416 14.8438C192.752 13.8273 192.33 12.8108 192.137 11.8065C191.957 10.79 191.86 9.6387 191.86 8.35272V0H200V39.2039H192.21V35.0888H191.366C191.161 36.3748 190.389 37.5015 189.014 38.4568C187.651 39.4244 185.939 39.902 183.865 39.902C175.412 39.9143 171.191 35.15 171.191 25.6093ZM181.345 31.9535C182.563 33.5456 184.178 34.3417 186.216 34.3417C188.049 34.3417 189.46 33.6926 190.461 32.3944C191.462 31.0961 191.957 29.406 191.957 27.3484V24.0049C191.957 21.5677 191.462 19.6816 190.461 18.3466C189.46 17.0116 188.11 16.338 186.421 16.338C184.456 16.338 182.816 17.1219 181.501 18.665C180.187 20.2205 179.524 22.4495 179.524 25.3644C179.524 28.169 180.139 30.3613 181.345 31.9535Z" fill="black"/>
<path d="M142.273 0H151.414L142.273 8.57318V0Z" fill="#7646FF"/>
</svg>
